<?xml version="1.0" encoding="UTF-8" standalone="no"?>
<svg
   id="Layer_2"
   data-name="Layer 2"
   viewBox="0 0 600.11903 600.11902"
   version="1.1"
   sodipodi:docname="icon.svg"
   width="600.11902"
   height="600.11902"
   inkscape:export-filename="cleanbee.svg"
   inkscape:export-xdpi="96"
   inkscape:export-ydpi="96"
   inkscape:version="1.3.1 (9b9bdc1480, 2023-11-25, custom)"
   xmlns:inkscape="http://www.inkscape.org/namespaces/inkscape"
   xmlns:sodipodi="http://sodipodi.sourceforge.net/DTD/sodipodi-0.dtd"
   xmlns="http://www.w3.org/2000/svg"
   xmlns:svg="http://www.w3.org/2000/svg">
  <sodipodi:namedview
     id="namedview54"
     pagecolor="#00543c"
     bordercolor="#000000"
     borderopacity="0.25"
     inkscape:showpageshadow="2"
     inkscape:pageopacity="0.0"
     inkscape:pagecheckerboard="0"
     inkscape:deskcolor="#d1d1d1"
     inkscape:zoom="1.2203276"
     inkscape:cx="306.88481"
     inkscape:cy="319.58632"
     inkscape:window-width="1920"
     inkscape:window-height="1043"
     inkscape:window-x="0"
     inkscape:window-y="0"
     inkscape:window-maximized="1"
     inkscape:current-layer="Layer_1-2"
     inkscape:export-bgcolor="#00543cff" />
  <defs
     id="defs27">
    <style
       id="style1">
      .cls-1 {
        clip-path: url(#clippath-4);
      }

      .cls-1, .cls-2, .cls-3, .cls-4, .cls-5, .cls-6, .cls-7, .cls-8, .cls-9, .cls-10, .cls-11, .cls-12, .cls-13, .cls-14, .cls-15, .cls-16, .cls-17, .cls-18, .cls-19, .cls-20, .cls-21, .cls-22, .cls-23, .cls-24, .cls-25, .cls-26, .cls-27, .cls-28 {
        fill: none;
      }

      .cls-2 {
        clip-path: url(#clippath-2);
      }

      .cls-29 {
        fill: #fff;
      }

      .cls-3 {
        clip-path: url(#clippath-6);
      }

      .cls-4 {
        clip-path: url(#clippath-9);
      }

      .cls-30 {
        fill: #fae300;
      }

      .cls-31 {
        fill: #939598;
      }

      .cls-5 {
        clip-path: url(#clippath-12);
      }

      .cls-6 {
        clip-path: url(#clippath-13);
      }

      .cls-7 {
        clip-path: url(#clippath-21);
      }

      .cls-8 {
        clip-path: url(#clippath-7);
      }

      .cls-9 {
        clip-path: url(#clippath-18);
      }

      .cls-10 {
        clip-path: url(#clippath-10);
      }

      .cls-11 {
        clip-path: url(#clippath-22);
      }

      .cls-12 {
        clip-path: url(#clippath-5);
      }

      .cls-13 {
        clip-path: url(#clippath-24);
      }

      .cls-14 {
        clip-path: url(#clippath-26);
      }

      .cls-15 {
        clip-path: url(#clippath-16);
      }

      .cls-16 {
        clip-path: url(#clippath-15);
      }

      .cls-17 {
        clip-path: url(#clippath-3);
      }

      .cls-18 {
        clip-path: url(#clippath-11);
      }

      .cls-19 {
        clip-path: url(#clippath-19);
      }

      .cls-21 {
        clip-path: url(#clippath-20);
      }

      .cls-22 {
        clip-path: url(#clippath-23);
      }

      .cls-23 {
        clip-path: url(#clippath-17);
      }

      .cls-24 {
        clip-path: url(#clippath);
      }

      .cls-25 {
        clip-path: url(#clippath-1);
      }

      .cls-26 {
        clip-path: url(#clippath-8);
      }

      .cls-27 {
        clip-path: url(#clippath-25);
      }

      .cls-28 {
        clip-path: url(#clippath-14);
      }

      .cls-32 {
        fill: #231f20;
      }
    </style>
    <clipPath
       id="clippath">
      <rect
         class="cls-20"
         width="600.29999"
         height="384.5"
         id="rect1"
         x="0"
         y="0" />
    </clipPath>
    <clipPath
       id="clippath-1">
      <rect
         class="cls-20"
         width="600.29999"
         height="384.5"
         id="rect2"
         x="0"
         y="0" />
    </clipPath>
    <clipPath
       id="clippath-2">
      <rect
         class="cls-20"
         width="600.29999"
         height="384.5"
         id="rect3"
         x="0"
         y="0" />
    </clipPath>
    <clipPath
       id="clippath-3">
      <rect
         class="cls-20"
         width="600.29999"
         height="384.5"
         id="rect4"
         x="0"
         y="0" />
    </clipPath>
    <clipPath
       id="clippath-4">
      <rect
         class="cls-20"
         width="600.29999"
         height="384.5"
         id="rect5"
         x="0"
         y="0" />
    </clipPath>
    <clipPath
       id="clippath-5">
      <rect
         class="cls-20"
         width="600.29999"
         height="384.5"
         id="rect6"
         x="0"
         y="0" />
    </clipPath>
    <clipPath
       id="clippath-6">
      <rect
         class="cls-20"
         width="600.29999"
         height="384.5"
         id="rect7"
         x="0"
         y="0" />
    </clipPath>
    <clipPath
       id="clippath-7">
      <rect
         class="cls-20"
         width="600.29999"
         height="384.5"
         id="rect8"
         x="0"
         y="0" />
    </clipPath>
    <clipPath
       id="clippath-8">
      <rect
         class="cls-20"
         width="600.29999"
         height="384.5"
         id="rect9"
         x="0"
         y="0" />
    </clipPath>
    <clipPath
       id="clippath-9">
      <rect
         class="cls-20"
         width="600.29999"
         height="384.5"
         id="rect10"
         x="0"
         y="0" />
    </clipPath>
    <clipPath
       id="clippath-10">
      <rect
         class="cls-20"
         width="600.29999"
         height="384.5"
         id="rect11"
         x="0"
         y="0" />
    </clipPath>
    <clipPath
       id="clippath-11">
      <rect
         class="cls-20"
         width="600.29999"
         height="384.5"
         id="rect12"
         x="0"
         y="0" />
    </clipPath>
    <clipPath
       id="clippath-12">
      <rect
         class="cls-20"
         width="600.29999"
         height="384.5"
         id="rect13"
         x="0"
         y="0" />
    </clipPath>
    <clipPath
       id="clippath-13">
      <rect
         class="cls-20"
         width="600.29999"
         height="384.5"
         id="rect14"
         x="0"
         y="0" />
    </clipPath>
    <clipPath
       id="clippath-14">
      <rect
         class="cls-20"
         width="600.29999"
         height="384.5"
         id="rect15"
         x="0"
         y="0" />
    </clipPath>
    <clipPath
       id="clippath-15">
      <rect
         class="cls-20"
         width="600.29999"
         height="384.5"
         id="rect16"
         x="0"
         y="0" />
    </clipPath>
    <clipPath
       id="clippath-16">
      <rect
         class="cls-20"
         width="600.29999"
         height="384.5"
         id="rect17"
         x="0"
         y="0" />
    </clipPath>
    <clipPath
       id="clippath-17">
      <rect
         class="cls-20"
         width="600.29999"
         height="384.5"
         id="rect18"
         x="0"
         y="0" />
    </clipPath>
    <clipPath
       id="clippath-18">
      <rect
         class="cls-20"
         width="600.29999"
         height="384.5"
         id="rect19"
         x="0"
         y="0" />
    </clipPath>
    <clipPath
       id="clippath-19">
      <rect
         class="cls-20"
         width="600.29999"
         height="384.5"
         id="rect20"
         x="0"
         y="0" />
    </clipPath>
    <clipPath
       id="clippath-20">
      <rect
         class="cls-20"
         width="600.29999"
         height="384.5"
         id="rect21"
         x="0"
         y="0" />
    </clipPath>
    <clipPath
       id="clippath-21">
      <rect
         class="cls-20"
         width="600.29999"
         height="384.5"
         id="rect22"
         x="0"
         y="0" />
    </clipPath>
    <clipPath
       id="clippath-22">
      <rect
         class="cls-20"
         width="600.29999"
         height="384.5"
         id="rect23"
         x="0"
         y="0" />
    </clipPath>
    <clipPath
       id="clippath-23">
      <rect
         class="cls-20"
         width="600.29999"
         height="384.5"
         id="rect24"
         x="0"
         y="0" />
    </clipPath>
    <clipPath
       id="clippath-24">
      <rect
         class="cls-20"
         width="600.29999"
         height="384.5"
         id="rect25"
         x="0"
         y="0" />
    </clipPath>
    <clipPath
       id="clippath-25">
      <rect
         class="cls-20"
         width="600.29999"
         height="384.5"
         id="rect26"
         x="0"
         y="0" />
    </clipPath>
    <clipPath
       id="clippath-26">
      <rect
         class="cls-20"
         width="600.29999"
         height="384.5"
         id="rect27"
         x="0"
         y="0" />
    </clipPath>
  </defs>
  <g
     id="Layer_1-2"
     data-name="Layer 1"
     transform="translate(7.2088572,15.789947)">
    <rect
       style="fill:#00543c;fill-opacity:1;stroke:none;stroke-width:100"
       id="rect63"
       width="600.11902"
       height="600.11902"
       x="-7.2088571"
       y="-15.789947" />
    <path
       class="cls-32"
       d="m 404.07783,438.75706 c -2.7,-0.5 -4.6,-0.4 -6.1,-1.1 -8.8,-4.5 -15.2,-11.4 -19.3,-20.4 -0.5,-1 -0.9,-2.1 -1.4,-3.2 -0.2,0.3 -0.5,0.6 -0.7,0.9 -1.5,-0.8 -3.5,-1.3 -4.4,-2.6 -6,-8.5 -11.8,-17.2 -17.7,-25.8 -0.3,1 -0.8,2.6 -1.2,4.2 -5.9,22 -13.6,43.3 -26.8,62.1 -4.5,6.4 -10.1,12.3 -16.1,17.2 -11,8.8 -22.7,8.5 -34.1,0.3 -8.8,-6.3 -15.1,-14.8 -20.6,-23.9 -10.9,-18.2 -18,-38 -23.2,-58.5 -0.2,-0.6 -0.4,-1.3 -0.5,-1.6 -6.3,9.6 -12.5,19.2 -18.8,28.7 -1.7,-0.5 -2.6,-0.8 -3.7,-1.2 -0.3,0.5 -0.6,1 -0.8,1.5 -4.2,10.1 -11,17.7 -20.8,22.6 -1.2,0.6 -2.8,0.4 -4.3,0.1 -5.8,6.9 -12.6,12.7 -21.2,16.1 -7.9,3.1 -6,3 -10.1,-3.3 -0.8,-1.3 -1.5,-2.6 -2.3,-4.2 7.5,-8.2 16.8,-13 26.7,-14.9 0.7,-2.2 1,-4.2 1.9,-5.6 4.7,-7.1 11.2,-12.1 19,-15.3 1,-0.4 1.9,-0.8 2.9,-1.2 0.1,0 0.1,-0.2 0.3,-0.5 -3.4,-1.3 -2.6,-3.7 -1.7,-6.4 5.8,-16.4 14.2,-31.3 25.6,-44.5 1.7,-1.9 2.4,-3.7 2.2,-6.2 -0.8,-14.5 1.1,-28.6 8.3,-41.5 1.7,-3 3.7,-5.8 5.7,-9 -1.3,-0.6 -2.5,-1.1 -3.9,-1.6 -10.8,14.2 -24.1,25.4 -39.8,33.7 -5.9,3.2 -12.2,5.7 -18.4,8.3 -2,0.8 -2.9,1.7 -3,3.9 -0.3,6.2 -2.6,11.8 -6.4,16.7 -0.5,0.7 -1.6,1.9 -2,1.7 -3.1,-1.2 -3.8,1.4 -5.1,3 -5.9,7.2 -13.2,12.3 -22,15.3 -2,0.7 -3.2,0.4 -4.3,-1.5 -4.7,-8.3 -5.9,-6.4 2.2,-12.4 4.6,-3.4 10.3,-5.3 15.4,-7.9 1,-0.5 2.3,-1.5 2.3,-2.3 0.7,-10.3 5.5,-18.3 13.5,-24.6 0.2,-0.1 0.2,-0.4 0.4,-0.8 -0.5,-1.1 -1.1,-2.4 -1.7,-3.7 9.4,-8.5 19.8,-15.2 31.1,-20.6 11.2,-5.3 22.9,-8.9 35.2,-10.7 -1.4,-8 0.7,-11.7 8.4,-14.4 3.3,-1.1 6.7,-1.6 10.4,-2.5 -2,-2.3 -4.1,-4.7 -6.3,-7.3 -3.6,1.9 -7.1,3.8 -10.7,5.7 -25,13.2 -51.4,22.5 -79.3,26.6 -8.4,1.2 -17.7,-0.7 -26.2,-2.7 -28.1,-6.8 -49.000001,-23.2 -62.400001,-49.1 -0.9,-1.6 -1.6,-2.5 -3.7,-2 -13.5,3.5 -25.8,0.4 -37.2,-7 -20.6,-13.3 -32.2,-32.1 -34.5,-56.5 -0.8,-8.1 4,-15.5 11.8,-17.7 20.1,-5.7 40.7,-7.5 61.5,-6 30.3,2.3 58.600001,12.1 86.900001,22.2 25.3,9 50.6,17.8 76,26.6 3.3,1.1 6.7,1.8 10.7,2.9 -2.6,-2.1 -4.6,-3.6 -6.4,-5.4 -1,-0.9 -2.1,-2.4 -2.1,-3.5 0.2,-4.5 -3.1,-5.2 -6.2,-6.6 -19.5,-8.5 -35.6,-21.4 -48.9,-37.9 -0.4,-0.5 -0.7,-0.9 -1,-1.4 -0.1,-0.2 -0.1,-0.4 -0.2,-0.8 0.7,-1 1.4,-2 2.3,-3.3 -0.8,-1.1 -1.6,-2.1 -2.4,-3.2 -5.2,-6.9 -7.7,-14.6 -6.5,-23.2 0.3,-2.2 -0.4,-3.1 -2.2,-4 -6.8,-3.4 -12.2,-8.4 -16.8,-14.4 -1.3,-1.7 -1.4,-3 0.2,-4.5 1.9,-1.9 3.6,-3.9 5.5,-6 9.7,4.8 16.8,11.8 21.7,21.2 0.8,1.6 1.1,3.6 3.8,3.2 0.5,-0.1 1.5,1.3 1.9,2.2 2.7,5.6 3.9,11.4 3,17.6 -0.3,2 0.3,3.1 2.1,4.2 19,11.3 34.3,26.2 45.4,45.4 0.9,1.5 1.7,1.7 3.5,1.5 3.5,-0.3 7.2,-0.1 10.6,0.8 2.8,0.8 4.6,0.8 6.1,-2.1 -0.8,-0.7 -1.6,-1.4 -2.5,-2.1 -8.5,-7.3 -11.9,-20 -8.1,-30.2 3.4,-9 11.3,-13.3 20.6,-11.1 q 2.6,0.6 5,-2.4 c -9,-7.5 -18,-14.8 -26.8,-22.5 -3.9,-3.4 -7.1,-7.6 -10.7,-11.5 -0.8,-0.9 -1.8,-1.8 -2.8,-2.4 -6.8,-4.5 -12.6,-9.9 -17.5,-16.799996 1.8,-1.9 3.5,-3.8 5.2,-5.7 7.2,4.3 13,9.699996 18.1,16.099996 1.3,1.7 3.1,3.1 4.7,4.5 4.2,3.7 8.7,7 12.4,11.2 3.1,3.5 6.6,6.3 10.5,9 5.3,3.7 10.1,8.2 15.3,12.5 14.5,-5 20.3,-5 33.4,0.3 5.7,-6.7 12.6,-12.1 20.3,-16.5 1.8,-1 2.8,-3.3 4.3,-5 1.7,-1.9 3.3,-4 5.4,-5.4 8.5,-5.7 14.5,-14 22,-20.699996 2.4,-2.2 5.2,-3.9 7.8,-5.9 2.1,1.8 3.9,3.4 6,5.2 -4.9,6.999996 -10.6,12.299996 -17.2,16.899996 -1.6,1.1 -2.9,2.6 -4.2,4 -1.7,1.8 -3,3.9 -4.8,5.5 -10.5,9.1 -21,18.2 -31.8,27.5 1.1,1.7 2.5,2.8 5.7,2 10.5,-2.6 20.1,5.1 21.2,16.7 1,11.1 -3.1,20 -11.9,26.7 1.3,2.7 2.9,3.1 5.9,2.3 4.1,-1.1 8.5,-1.1 13,-1.6 5.3,-6.9 10.8,-14.7 16.9,-21.9 8.3,-9.7 18.3,-17.6 29.3,-24 2.1,-1.2 2.9,-2.4 2.6,-4.9 -0.8,-5.7 0.3,-11.1 2.6,-16.3 0.8,-1.7 1.2,-3.5 3.9,-3.2 0.6,0.1 1.5,-1.5 2,-2.5 4.8,-9.6 11.9,-16.8 21.9,-21.8 2.1,2.3 4.3,4.5 6.1,7 0.5,0.7 0.2,2.5 -0.4,3.3 -4.4,6.3 -10.1,11.2 -16.9,14.9 -1,0.5 -2.2,2.2 -2.1,3.2 1.1,9.7 -1.7,18.1 -7.9,25.5 -0.4,0.4 -0.7,0.9 -1.1,1.5 0.8,1.2 1.6,2.3 2.5,3.6 -8.8,11.6 -19.2,21.7 -31.5,29.4 -6.9,4.4 -14.5,7.9 -21.8,11.6 -1.7,0.9 -2.4,1.7 -2.9,3.7 -0.6,2.4 -2.3,4.7 -4,6.7 -1,1.3 -2.7,2.1 -3.9,3.6 3.3,-0.9 6.6,-1.5 9.8,-2.6 25.8,-9 51.6,-17.9 77.3,-27.1 22.3,-8 44.8,-15.7 68.2,-19.6 26.2,-4.5 52.2,-3.3 77.8,3.6 9,2.4 13.7,9.6 12.7,19 -2.9,27.2 -16.9,46.7 -41.1,59.2 -9.5,4.9 -19.5,5.9 -29.9,3.4 -2.5,-0.6 -3.4,0.1 -4.5,2.1 -16.3,30.8 -42.4,47.1 -76.6,51.5 -13.1,1.7 -25.1,-2.3 -37.3,-5.5 -22.6,-5.9 -43.9,-15.1 -64.3,-26.9 -2.2,2.5 -4.3,4.9 -6.5,7.3 3.6,0.9 7.2,1.4 10.5,2.5 7.8,2.7 9.8,6.3 8.4,14.4 16.8,2.4 32.4,8 46.8,17 6.8,4.2 13.1,9.1 19.7,13.7 -0.8,1.8 -1.4,3 -2,4.4 0.6,0.6 1.3,1.3 2.1,2 6.9,5.8 11.1,13.1 11.7,22.2 0.1,2 0.8,3 2.9,3.6 7.4,2 13.8,5.9 19.5,11.2 1.5,1.4 1.7,2.5 0.6,4.2 -5.1,8.1 -2.9,8.2 -12.6,4 -7,-3 -12.6,-7.9 -17.2,-13.9 -1,-1.4 -1.7,-3.1 -4.1,-2.1 -0.4,0.2 -1.5,-0.8 -2.1,-1.5 -3.9,-5 -6.3,-10.6 -6.7,-16.9 -0.1,-1.7 -0.2,-2.9 -2.3,-3.7 -23.3,-8.4 -43,-21.9 -58.3,-41.5 -0.1,-0.2 -0.3,-0.3 -0.6,-0.5 -0.9,0.3 -1.9,0.7 -2.8,1.1 -0.3,0.1 -0.5,0.4 -1,0.7 7,8.7 11.4,18.5 12.9,29.4 1,7.1 0.7,14.4 1.3,21.6 0.1,1.7 0.7,3.7 1.8,4.9 11.6,13.6 20.3,28.9 26.2,45.8 0.9,2.5 1.1,4.5 -2.7,5.7 1.7,0.7 2.7,1.2 3.7,1.6 8.2,3.3 14.9,8.6 19.7,16 0.8,1.2 0.8,2.9 1.4,4.9 8.7,1.7 17.2,5.8 24.5,12.5 2.1,1.9 2.3,3.3 0.8,5.5 -5.1,7.8 -2.7,7.9 -12.1,3.9 -7.6,-3.5 -14,-9 -18.5,-15 m -328.400001,-189.8 c 0.5,1.3 0.6,1.6 0.7,1.9 0.4,0.8 0.9,1.7 1.3,2.5 12.6,22.4 31.600001,36.3 56.400001,42.1 7.2,1.7 14.9,3.4 22,2.3 27.1,-4.1 52.7,-13.3 76.9,-26 3.3,-1.7 6.4,-3.6 9.8,-5.4 -0.7,-1.5 -1.2,-2.6 -1.7,-3.6 -16.7,3.3 -33,6.5 -49.2,10 -4.2,0.9 -8.7,2 -12.4,4.1 -7.4,4.2 -14.3,9.1 -21.5,13.6 -0.9,0.5 -2.2,0.3 -3.4,0.4 0.6,-0.9 1.1,-2.2 2,-2.8 5.3,-3.6 10.7,-7 16.1,-10.5 q 8.3,-5.3 5.9,-14.9 c 0,-0.2 -0.3,-0.3 -0.5,-0.6 -3,0.2 -6.2,0.6 -9.3,0.5 -7.6,-0.4 -15.1,-1.3 -22.6,-1.6 -2.2,-0.1 -4.7,0.4 -6.5,1.4 -8.3,4.7 -16.3,9.8 -24.5,14.7 -0.8,0.5 -2,0.2 -3,0.2 0.5,-0.9 0.8,-2.1 1.6,-2.5 3.8,-2.5 7.7,-4.8 11.6,-7.1 3.7,-2.3 7.4,-4.5 11.2,-6.8 -4.8,-1 -9.4,-1.4 -13.9,-1.7 -2.9,-0.2 -5.8,-0.4 -8.7,-0.7 -0.7,-0.1 -1.3,-1 -1.9,-1.5 0.6,-0.4 1.2,-0.9 1.9,-1.1 0.5,-0.2 1.2,0 1.7,0 10.8,0.8 21.6,1.7 32.4,2.5 8,0.6 16.1,1.9 24,1.4 17.5,-1.1 35,-3.1 52.5,-4.7 4.7,-0.4 9.4,-1 14,-1.5 0.1,-0.4 0.2,-0.8 0.3,-1.2 -1,-0.5 -2,-1.2 -3.2,-1.5 -19.6,-4.3 -39.4,-7.1 -59.4,-7.9 -24.3,-1 -48.6,-3 -72.8,1 -9.300001,1.4 -18.400001,3.3 -27.800001,5 m 435.200001,0.7 c -1,-0.4 -1.5,-0.6 -2.1,-0.8 -16.1,-4 -32.4,-7.1 -48.9,-7 -21.7,0.1 -43.5,0.7 -65.2,2.3 -14.7,1.1 -29.2,4.3 -43.8,6.7 -1.1,0.2 -2,1.2 -3,1.8 0.2,0.3 0.3,0.6 0.5,0.9 14.6,1.4 29.2,2.8 43.8,4.2 8.6,0.8 17.2,2.2 25.7,2 13.8,-0.4 27.6,-2 41.4,-3 4.4,-0.3 8.8,-0.7 13.2,-0.9 0.7,0 1.4,0.8 2.1,1.2 -0.7,0.5 -1.3,1.1 -2,1.5 -0.5,0.2 -1.1,0.1 -1.7,0.1 -6.9,0.5 -13.8,1.1 -21.5,1.7 1.7,1.1 2.6,1.8 3.5,2.4 6.2,3.7 12.4,7.4 18.5,11.3 1.2,0.8 2,2.3 3,3.5 -1.5,-0.4 -3.2,-0.5 -4.5,-1.3 -7.8,-4.6 -15.5,-9.4 -23.3,-14 -1.6,-0.9 -3.7,-1.3 -5.5,-1.3 -5.7,0.2 -11.4,0.9 -17.1,1.2 -5.3,0.2 -10.6,0 -15.9,0 -0.5,2.5 -0.9,4.7 -1.5,6.8 -0.7,2.5 -0.2,4.1 2.3,5.7 7.2,4.3 14.2,8.9 21.1,13.6 0.8,0.6 1.2,1.8 1.8,2.8 -1.1,-0.2 -2.5,0 -3.4,-0.6 -6.6,-4.1 -13,-8.6 -19.7,-12.5 -3.4,-2 -7.3,-3.5 -11.1,-4.5 -6.4,-1.7 -13,-2.7 -19.5,-4 -10.9,-2.2 -21.8,-4.4 -32.9,-6.7 -0.5,1.4 -1,2.5 -1.4,3.7 21.8,12.6 44.5,21.9 68.6,27.7 7.3,1.8 14.8,3.8 22.2,3.9 11.6,0.1 22.8,-2.9 33.5,-7.6 19.2,-8.4 33.3,-22 42.8,-40.8 m -440.600001,-57.9 c -1.8,-0.2 -2.8,-0.3 -3.7,-0.4 -11.1,-1.1 -22.2,-2.2 -33.3,-3.3 -0.9,-0.1 -1.8,-1 -2.6,-1.5 0.9,-0.4 1.9,-1.3 2.7,-1.2 20.2,1.9 40.3,3.9 60.4,5.8 4.7,0.5 9.500001,0.8 14.900001,1.3 -3.3,-4.4 -6,-8.2 -9.000001,-11.8 -0.8,-1 -2.2,-1.7 -3.4,-2 -29.1,-7.2 -58.3,-7.2 -87.3,0.3 -5.3,1.4 -7.7,4.5 -7.1,9.9 2.7,25.3 15.9,43.2 38.9,53.8 7.3,3.4 15.1,3.5 22.9,1.4 6.7,-1.8 13.5,-3.5 20.2,-5.3 0.5,-0.1 1,-0.5 1.6,-0.9 -0.5,-1.6 -1.2,-2.9 -1.4,-4.4 -0.5,-2.9 -1.9,-3.9 -5,-3.7 -8.8,0.5 -17.7,0.6 -26.5,0.7 -1.1,0 -2.1,-0.8 -3.2,-1.2 1.1,-0.5 2.2,-1.5 3.3,-1.5 9.3,-0.3 18.6,-0.5 27.9,-0.8 1.1,0 2.5,-0.1 3.3,-0.7 4.3,-3.5 8.5,-7.1 13.4,-11.3 -2,-0.2 -3.1,-0.5 -4.2,-0.5 -9.9,-0.3 -19.8,-0.7 -29.6,-0.7 -12,0 -24,0.4 -36,0.5 -1,0 -1.9,-0.8 -2.9,-1.2 1,-0.5 1.9,-1.4 2.9,-1.5 3.2,-0.2 6.6,-0.5 9.8,-0.1 9,1.1 15.8,-2.1 21.6,-8.9 3.1,-3.7 7.2,-6.8 11.4,-10.8 m 431.200001,46.5 c 8.2,2.2 16.3,4.4 24.4,6.4 6.4,1.5 12.9,1.1 18.8,-1.5 23.5,-10.3 37.1,-28.1 40,-53.7 0.7,-6.2 -1.5,-9.1 -7.5,-10.6 -28.9,-7.5 -57.8,-7.3 -86.7,-0.3 -1,0.2 -2.3,0.4 -2.8,1.1 -3.2,4 -6.3,8.2 -9.8,12.9 8.1,-0.8 15.4,-1.4 22.7,-2.1 17.6,-1.7 35.2,-3.4 52.8,-5 0.8,-0.1 1.8,0.8 2.7,1.3 -0.8,0.5 -1.6,1.3 -2.4,1.4 -6.6,0.7 -13.2,1.4 -19.8,2 -5.6,0.6 -11.2,1.1 -17.6,1.7 4,3.8 7.5,7 10.9,10.3 q 9.9,9.4 23.7,9.6 c 2.8,0 5.6,-0.1 8.4,0.1 1,0.1 1.9,0.8 2.8,1.2 l -3,1.5 c -0.4,0.2 -0.9,0 -1.4,0 -17.1,-0.2 -34.2,-0.6 -51.3,-0.7 -5.4,0 -10.7,0.7 -16.1,1 3.6,4.1 7.3,7.5 11.3,10.5 1.3,1 3.1,1.7 4.6,1.7 9.4,0.4 18.8,0.5 28.3,0.8 1,0 1.9,0.8 2.8,1.3 -1,0.5 -2,1.4 -2.9,1.4 -7.8,-0.1 -15.6,-0.4 -23.4,-0.6 -7.6,-0.2 -7.6,-0.1 -9.5,7.3 v 1 m -259,81.8 c -3.5,8.5 -4.4,17.4 -4.2,26.6 0,3.3 1.2,4.8 4.5,5.6 23.4,6 47.1,7.7 71,5.2 10.5,-1.1 20.8,-3.6 31.2,-5.7 1.1,-0.2 2.8,-1.3 2.9,-2.2 1.1,-10.2 -0.1,-20.1 -3.8,-29.6 -31.9,5.6 -47.2,9.9 -101.6,0.1 m -2.4,46.1 c 2.9,10.3 5.6,19.6 8.2,28.9 0.6,2.4 1.9,3.3 4.3,3.8 27.2,5.5 54.3,5.5 81.5,0 2.3,-0.5 3.7,-1.3 4.3,-3.7 1.1,-4.2 2.7,-8.2 3.8,-12.3 1.4,-5.3 2.6,-10.7 4,-16.6 -35.5,8.5 -70.2,8.5 -106.1,-0.1 m 6.4,-54.2 c 31.4,7.1 62.2,7.1 93.6,0 -6.2,-9.7 -14.4,-16.1 -24.6,-19.9 -0.8,-0.3 -1.8,0 -2.7,0.3 -13,3.7 -25.9,3.6 -38.9,0.1 -1,-0.3 -2.2,-0.6 -3,-0.3 -10,3.8 -18.2,10.1 -24.4,19.8 m -81.3,-90.8 c -3,-0.4 -5.4,-0.9 -7.8,-1.1 -15.3,-1.4 -30.6,-2.6 -45.9,-4.1 -10,-1 -10,-1.1 -17.600001,5.5 -1.1,1 -2.3,2 -3.4,3 -6.3,5.6 -5.3,2.8 -2.9,10.9 0.5,1.8 1.3,2.4 3.2,2 21.500001,-4.2 43.200001,-5.2 65.000001,-3.8 1,0.1 2.5,-0.7 3,-1.5 2.1,-3.3 4,-6.8 6.4,-10.9 m 333.1,16.4 c 0.7,-2 1.1,-3.8 1.9,-5.4 1.1,-2.4 0.6,-4 -1.5,-5.6 -3.9,-3.1 -7.6,-6.6 -11.5,-9.6 -1.1,-0.9 -2.9,-1.5 -4.3,-1.4 -15.3,1.2 -30.6,2.6 -45.9,3.9 -5,0.5 -10,1.1 -15.6,1.7 2.3,3.9 4.3,7.1 6,10.4 1,1.8 2,2.3 4.1,2.2 17.3,-1.2 34.7,-0.8 51.9,1.7 5,0.6 9.9,1.3 14.9,2.1 m -335.5,-19.8 c -3.9,-4.5 -7.3,-8.6 -10.9,-12.5 -1.1,-1.2 -2.7,-2.2 -4.3,-2.5 -11.6,-2.4 -23.2,-4.6 -34.8,-6.9 -5.6,-1.1 -10.4,-1 -14.700001,3.9 -3.5,4 -7.9,7.2 -12.6,11.3 26.100001,2.3 51.300001,4.5 77.300001,6.7 m 338.4,-6.7 c -5.9,-5.2 -10.9,-9.8 -16.2,-14.1 -1.3,-1.1 -3.6,-1.9 -5.2,-1.6 -13.8,2.3 -27.6,5 -41.4,7.5 -0.8,0.1 -1.8,0.3 -2.3,0.8 -4,4.5 -7.9,9.2 -12.2,14.1 25.9,-2.2 51.2,-4.4 77.3,-6.7 m -262.7,14.2 c -30.7,-7.4 -59.4,-19.4 -88.9,-29.7 1.2,2.7 2.5,5.2 4.2,7.3 3.9,4.8 7.9,9.4 12.1,14 1.1,1.2 2.8,2.1 4.3,2.4 15.5,3.1 31,6 46.5,9 6.8,1.3 13.6,2.5 20.8,3.9 0.3,-2.4 0.6,-4.4 1,-6.9 m 110.5,6.7 c 1,-0.1 1.6,-0.1 2.2,-0.2 21.3,-4.1 42.6,-8.2 64,-12.2 2.8,-0.5 4.8,-1.6 6.6,-3.8 3.4,-4.3 7.2,-8.2 10.6,-12.5 1.8,-2.3 3.3,-4.9 4.9,-7.4 -0.2,-0.2 -0.4,-0.5 -0.6,-0.7 -29.2,10.7 -58.1,22.6 -88.6,30 0.3,2.4 0.6,4.5 0.9,6.8 m 0.3,3.1 v 5.7 c 0,0.5 0.1,0.9 0.2,1.6 25,-5.3 50.1,-8.2 76.1,-8.5 -2,-3.4 -3.8,-6.1 -5.2,-9 -1.2,-2.3 -2.5,-3 -5.2,-2.4 -9.2,2 -18.5,3.6 -27.7,5.3 -12.7,2.4 -25.3,4.8 -38.2,7.3 m -112.1,0.4 c -0.3,-0.3 -0.4,-0.4 -0.5,-0.4 -22.2,-4.3 -44.4,-8.5 -66.7,-12.7 -0.8,-0.1 -2.1,0.1 -2.4,0.6 -2.2,3.4 -4.2,7 -6.6,11 26.1,0.2 51.2,3.2 76.2,8.5 z m 294.9,-24.6 c -0.2,-0.5 -0.3,-0.7 -0.4,-0.9 -4.1,-3.8 -8.4,-7.4 -12.1,-11.5 -4.5,-5 -9.3,-7.2 -16.1,-5.7 -5.1,1.2 -10.5,1.2 -16.5,1.8 6.4,5.6 12.1,10.7 17.9,15.7 0.5,0.4 1.3,0.6 1.9,0.6 8.2,0 16.6,0 25.3,0 m -432.300001,-16.3 c -5.7,-0.6 -10.4,-1 -15.1,-1.6 q -10.3,-1.3 -17.9,5.9 c -1.9,1.8 -3.9,3.7 -5.8,5.5 -2.1,2 -4.3,4 -6.8,6.4 h 26.2 c 0.6,0 1.4,-0.3 1.9,-0.7 5.5,-4.9 11.1,-9.9 17.5,-15.5 m 139.400001,61.7 c -19.3,1.8 -38.4,3.6 -57.9,5.4 0.7,3.5 1.4,6.5 2.1,9.9 19.2,-3.9 38,-7.7 57,-11.5 -0.5,-1.6 -0.8,-2.6 -1.2,-3.8 m 164.1,15.3 c 0.7,-3.6 1.3,-6.6 1.9,-9.9 -19.5,-1.8 -38.6,-3.6 -57.8,-5.4 -0.4,1.3 -0.7,2.4 -1.1,3.7 19.1,3.9 37.8,7.7 57,11.6 m -143.3,148.8 c -0.3,0.4 -0.6,0.7 -0.9,1.1 1.7,1.6 3.3,4.3 5.2,4.6 18.8,3 37.7,2.9 56.6,0.4 3.9,-0.5 4.9,-2.8 6.2,-6.2 -22.7,3.4 -44.9,3.3 -67.1,0.1 m 223.5,-240.1 c -2,0.5 -3.1,0.7 -4.2,1 -11.4,3.6 -22.7,7.4 -34.2,10.8 -4,1.2 -5.4,4 -6.6,7.8 11.7,-2.3 22.9,-4.4 34.2,-6.6 0.6,-0.1 1.3,-0.5 1.7,-1 3,-3.8 5.8,-7.6 9.1,-12 m -335.5,19.6 c -1.1,-4.5 -3.3,-6.9 -7.5,-8.1 -11.1,-3.2 -22.1,-6.9 -33.2,-10.4 -1.1,-0.3 -2.2,-0.6 -4.2,-1.1 3.3,4.5 6,8.1 8.8,11.7 0.5,0.7 1.5,1.2 2.3,1.4 11.1,2.2 22.2,4.3 33.8,6.5 m 163.1,242.2 h -35.7 c 9.8,10.6 24.7,12.4 35.7,0 m 24.3,-278.6 c -1.3,-1.9 -2.1,-4.4 -3.9,-5.4 -2.4,-1.4 -4.6,0.5 -6.3,2.4 -2.6,2.9 -4,6.4 -3.3,10.2 0.3,1.7 1.5,4 2.9,4.5 1.4,0.5 3.9,-0.3 5.3,-1.4 3.1,-2.4 4.4,-5.9 5.3,-10.3 m -84.2,-0.3 c 0.8,4.8 2.4,8.5 5.8,11.1 3.4,2.6 7,1.1 7.7,-3.1 0.6,-4.3 -0.5,-8.2 -3.7,-11.1 -1.5,-1.3 -4.3,-2.5 -6,-2 -1.6,0.6 -2.5,3.4 -3.8,5.1"
       id="path27"
       style="fill:#fdbb30;fill-opacity:1;stroke:none" />
  </g>
</svg>
